<svg xmlns="http://www.w3.org/2000/svg" width="16.625" height="19" viewBox="0 0 16.625 19"><path d="M9.485,15.144a3.267,3.267,0,0,1-2.125-.786l-4.321-3.7A4.448,4.448,0,0,1,1.484,7.274V4.453A4.458,4.458,0,0,1,5.938,0h7.422a4.458,4.458,0,0,1,4.453,4.453V6.922a4.452,4.452,0,0,1-1.525,3.355l-4.655,4.062a3.266,3.266,0,0,1-2.133.8H9.485ZM5.938,1.484A2.972,2.972,0,0,0,2.969,4.453v2.82A2.965,2.965,0,0,0,4.005,9.528l4.321,3.7a1.791,1.791,0,0,0,2.33-.01l4.655-4.062a2.968,2.968,0,0,0,1.017-2.237V4.453a2.972,2.972,0,0,0-2.969-2.969Zm4.3,16.773v-1a.742.742,0,0,0-1.484,0v1a.742.742,0,0,0,1.484,0Zm2.672-1.187V16.031a.742.742,0,0,0-1.484,0V17.07a.742.742,0,0,0,1.484,0Zm2.412-2.115V13.916a.742.742,0,0,0-1.484,0v1.039a.742.742,0,0,0,1.484,0Zm2.486-2.227V11.689a.742.742,0,0,0-1.484,0v1.039a.742.742,0,0,0,1.484,0ZM7.57,17.07V16.031a.742.742,0,0,0-1.484,0V17.07a.742.742,0,0,0,1.484,0ZM5.158,14.955V13.916a.742.742,0,0,0-1.484,0v1.039a.742.742,0,0,0,1.484,0ZM2.672,12.729V11.689a.742.742,0,0,0-1.484,0v1.039a.742.742,0,0,0,1.484,0ZM10.8,9.871a1.353,1.353,0,0,1-.629-.156L9.5,9.364l-.669.351a1.354,1.354,0,0,1-1.96-1.423L7,7.552l-.54-.524a1.352,1.352,0,0,1,.748-2.3l.748-.108.334-.674a1.355,1.355,0,0,1,2.423,0l.334.674.748.108a1.352,1.352,0,0,1,.748,2.3L12,7.552l.127.74A1.353,1.353,0,0,1,10.8,9.871ZM9.5,7.863a1.352,1.352,0,0,1,.628.155l.492.258-.093-.543a1.348,1.348,0,0,1,.39-1.2l.393-.382-.546-.079a1.351,1.351,0,0,1-1.017-.737l-.246-.5-.246.5a1.351,1.351,0,0,1-1.017.737l-.546.079.393.382a1.348,1.348,0,0,1,.389,1.2l-.093.543.492-.258A1.353,1.353,0,0,1,9.5,7.863Z" transform="translate(-1.188)" fill="#fff"/></svg>