<svg xmlns="http://www.w3.org/2000/svg" width="17.2" height="19" viewBox="0 0 17.2 19"><path d="M17.159,7.9S14.47,5.24,14.46,5.231a3.767,3.767,0,0,0-2.487-.966H7.028a3.767,3.767,0,0,0-2.487.966C4.53,5.24,1.841,7.9,1.841,7.9a2.835,2.835,0,0,0-.435,3.726,35.039,35.039,0,0,0,6.317,6.533c1.419,1.115,2.134,1.116,3.554,0a35.037,35.037,0,0,0,6.317-6.533A2.835,2.835,0,0,0,17.159,7.9Zm-.785,2.879a33.2,33.2,0,0,1-5.985,6.19,3.276,3.276,0,0,1-.889.544,3.278,3.278,0,0,1-.889-.544,33.2,33.2,0,0,1-5.985-6.19A1.35,1.35,0,0,1,2.841,9c.011-.009,2.7-2.672,2.7-2.672a2.281,2.281,0,0,1,1.489-.58h4.945a2.281,2.281,0,0,1,1.489.58S16.148,8.993,16.159,9a1.35,1.35,0,0,1,.216,1.781Zm-1.845-.319a.742.742,0,0,1-.742.742H5.212a.742.742,0,0,1,0-1.485H7.848L6.734,8.237a.742.742,0,0,1,1.188-.891L9.481,9.425l1.559-2.079a.742.742,0,0,1,1.188.891L11.115,9.722h2.673A.742.742,0,0,1,14.53,10.464ZM8.665,2.446V.739a.742.742,0,0,1,1.485,0V2.446A.742.742,0,0,1,8.665,2.446Zm4.236.015.557-1.6a.742.742,0,1,1,1.4.489l-.557,1.6a.742.742,0,1,1-1.4-.489ZM4.1,1.3A.742.742,0,0,1,5.51.843l.52,1.6a.742.742,0,0,1-1.412.46Z" transform="translate(-0.9)" fill="#fff"/></svg>