<svg xmlns="http://www.w3.org/2000/svg" width="19" height="19" viewBox="0 0 19 19"><path d="M9.5,19a6.753,6.753,0,1,1,6.753-6.753A6.76,6.76,0,0,1,9.5,19Zm0-12.021a5.269,5.269,0,1,0,5.269,5.269A5.275,5.275,0,0,0,9.5,6.979Zm2.033-3.831,1.9-1.845a.742.742,0,0,0,.225-.532V.746a.743.743,0,0,0-1.364-.4l-1.8,1.746-.007.007a1.492,1.492,0,0,1-2.1,0L6.6.289A.743.743,0,0,0,5.269.746V.753a.742.742,0,0,0,.216.523L7.34,3.141a2.954,2.954,0,0,0,1.536.816,2.978,2.978,0,0,0,.563.054A2.967,2.967,0,0,0,11.531,3.148Zm3.127,2.206,4.118-4.081A.742.742,0,0,0,17.732.218L13.614,4.3a.742.742,0,0,0,1.045,1.054Zm-9.271,0a.742.742,0,0,0,0-1.049L1.264.218A.742.742,0,1,0,.22,1.273L4.338,5.354a.742.742,0,0,0,1.049,0Zm4.853,8.828V10.318a.742.742,0,0,0-1.484,0v3.859a.742.742,0,0,0,1.484,0Z" fill="#fff"/></svg>