<svg xmlns="http://www.w3.org/2000/svg" xmlns:xlink="http://www.w3.org/1999/xlink" width="19" height="19" viewBox="0 0 19 19"><defs><clipPath id="a"><rect width="19" height="19" transform="translate(65 372)" fill="#fff"/></clipPath></defs><g transform="translate(-65 -372)" clip-path="url(#a)"><path d="M18.625,16l-2.745-1.566a2.621,2.621,0,0,0,.113-.763v-4.9A2.6,2.6,0,0,0,14.57,6.445L10.686,4.467a2.587,2.587,0,0,0-.407-.165V.742a.742.742,0,0,0-1.484,0V4.282a2.594,2.594,0,0,0-.481.188L4.461,6.444A2.6,2.6,0,0,0,3.043,8.765v4.908a2.623,2.623,0,0,0,.111.754L.377,16a.742.742,0,1,0,.731,1.292l2.865-1.62a2.635,2.635,0,0,0,.484.322l3.852,1.984a2.613,2.613,0,0,0,2.382,0l3.884-1.987a2.632,2.632,0,0,0,.483-.319l2.832,1.616A.742.742,0,0,0,18.625,16ZM5.136,14.671a1.119,1.119,0,0,1-.609-1V8.955l4.267,2.118v5.483Zm8.762,0-3.619,1.852V11.028L12.474,9.9A.742.742,0,0,0,11.8,8.58l-2.3,1.183L5.3,7.682,8.991,5.791a1.126,1.126,0,0,1,1.022,0L13.9,7.767a1.118,1.118,0,0,1,.613,1v4.9a1.118,1.118,0,0,1-.612,1Zm0,0" transform="translate(65 372.368)" fill="#fff"/></g></svg>