<svg xmlns="http://www.w3.org/2000/svg" width="19" height="19" viewBox="0 0 19 19"><path d="M19,4.564A2.718,2.718,0,0,0,14.966,2.2,2.974,2.974,0,0,0,12.1,0H6.9A2.974,2.974,0,0,0,4.034,2.2,2.708,2.708,0,0,0,0,4.564c0,4.605,2.638,6.5,2.883,6.661a.742.742,0,1,0,.826-1.233A4.631,4.631,0,0,1,2.6,8.754a7.606,7.606,0,0,1-1.113-4.19,1.225,1.225,0,1,1,2.449,0v1.6c-.089,2.993,2.312,5.97,4.824,7.475V15.66a.742.742,0,0,0,1.484,0V13.64c2.544-1.5,4.91-4.454,4.824-7.48v-1.6a1.225,1.225,0,1,1,2.449,0A7.606,7.606,0,0,1,16.4,8.754a4.633,4.633,0,0,1-1.112,1.238.742.742,0,1,0,.826,1.233C16.362,11.06,19,9.17,19,4.564Zm-5.418,1.6c.087,2.5-1.993,4.95-4.077,6.191C7.437,11.092,5.333,8.635,5.418,6.16V2.969A1.486,1.486,0,0,1,6.9,1.484h5.2a1.486,1.486,0,0,1,1.484,1.484Zm.371,12.1a.742.742,0,0,1-.742.742H5.789a.742.742,0,0,1,0-1.484h7.422A.742.742,0,0,1,13.953,18.258ZM12.1,4.119a.742.742,0,0,1-.742.742H7.644a.742.742,0,0,1,0-1.484h3.711A.742.742,0,0,1,12.1,4.119Z" transform="translate(0 0)" fill="#fff"/></svg>