<svg xmlns="http://www.w3.org/2000/svg" width="19" height="19" viewBox="0 0 19 19"><path d="M6.681,17.036C6.713,17.04,6.649,17.036,6.681,17.036ZM14.547,0H4.453A4.458,4.458,0,0,0,0,4.456v5.566a.742.742,0,0,0,1.484,0V4.456A2.972,2.972,0,0,1,4.453,1.487H14.547a2.972,2.972,0,0,1,2.969,2.969v5.566a.742.742,0,0,0,1.484,0V4.456A4.458,4.458,0,0,0,14.547,0ZM6.775,15.558c-3.452-.445-5.29-1.776-5.29-2.567a.742.742,0,0,0-1.484,0c0,.7.356,1.732,2.054,2.68a13.56,13.56,0,0,0,4.626,1.365.742.742,0,0,0,.094-1.478Zm1.949-1.684a.742.742,0,0,0-1.045,1.054l1.15,1.14a.384.384,0,0,1,0,.544L7.683,17.729a.742.742,0,0,0,1.035,1.063l1.15-1.12,0,0a1.875,1.875,0,0,0,0-2.654Zm3.744,3C12.434,16.882,12.5,16.877,12.468,16.877Zm5.79-4.629a.742.742,0,0,0-.742.742c0,.39-.462.87-1.237,1.284A12.129,12.129,0,0,1,12.368,15.4a.742.742,0,0,0,.1,1.478c2.563-.3,6.57-1.523,6.532-3.886a.742.742,0,0,0-.742-.742ZM8.016,4.493H7.422a.742.742,0,0,1,0-1.484h.594A.742.742,0,0,1,8.016,4.493ZM5.2,3.751a.742.742,0,0,0-.742-.742H3.859a.742.742,0,0,0,0,1.484h.594A.742.742,0,0,0,5.2,3.751Zm7.125,0a.742.742,0,0,0-.742-.742h-.594a.742.742,0,0,0,0,1.484h.594A.742.742,0,0,0,12.32,3.751Zm3.562,0a.742.742,0,0,0-.742-.742h-.594a.742.742,0,0,0,0,1.484h.594A.742.742,0,0,0,15.883,3.751Zm-6.32,8.367,2.444-1.453a1.7,1.7,0,0,0,0-2.919L9.563,6.294a1.7,1.7,0,0,0-1.726-.016,1.68,1.68,0,0,0-.86,1.476v2.905a1.68,1.68,0,0,0,.86,1.476,1.7,1.7,0,0,0,1.726-.016ZM8.8,7.57l2.444,1.453a.21.21,0,0,1,0,.367L8.8,10.842a.225.225,0,0,1-.233,0,.205.205,0,0,1-.11-.186V7.754a.205.205,0,0,1,.11-.186.237.237,0,0,1,.116-.032A.226.226,0,0,1,8.8,7.57Z" transform="translate(0 -0.003)" fill="#fff"/></svg>