<svg xmlns="http://www.w3.org/2000/svg" width="12.879" height="9.692" viewBox="0 0 12.879 9.692"><g transform="translate(0 -2.569)"><g transform="translate(0 2.569)"><circle cx="1.505" cy="1.505" r="1.505" transform="translate(4.965 6.683)" fill="#36f563"/><path d="M11.485,9.044c-.022-.023-.046-.043-.069-.064l-.068-.064a.329.329,0,0,0-.038-.032,4.908,4.908,0,0,0-6.78.159l-.218.218-.3.3A.945.945,0,0,0,5.348,10.9l.52-.52a3.032,3.032,0,0,1,4.282,0l.375.363a.937.937,0,0,0,1.6-.664.92.92,0,0,0-.272-.659Z" transform="translate(-1.42 -4.481)" fill="#36f563"/><path d="M12.629,5.272l-.313-.313s0,0,0,0l-.247-.248a.89.89,0,0,0-.14-.112A8.191,8.191,0,0,0,.861,4.85c-.015.014-.032.023-.047.038L.25,5.453A.862.862,0,0,0,1.469,6.671l.564-.564a.073.073,0,0,1,.011-.012,6.466,6.466,0,0,1,8.923-.049l.444.445a.862.862,0,0,0,1.218-1.219Z" transform="translate(0 -2.569)" fill="#36f563"/></g></g></svg>